HIERARCHY
ROOT hip
{
	OFFSET 0.000000 0.000000 0.000000 
	CHANNELS 6 Xposition Yposition Zposition Xrotation Zrotation Yrotation
	JOINT abdomen
	{
		OFFSET 0.000000 3.402643 0.000000 
		CHANNELS 3 Xrotation Zrotation Yrotation
		JOINT chest
		{
			OFFSET 0.000000 8.438565 -0.680529 
			CHANNELS 3 Xrotation Zrotation Yrotation
			JOINT neck
			{
				OFFSET 0.000000 10.207942 -0.272212 
				CHANNELS 3 Xrotation Zrotation Yrotation
				JOINT head
				{
					OFFSET 0.000000 3.130431 0.000000 
					CHANNELS 3 Xrotation Zrotation Yrotation
					End Site
					{
						OFFSET 0.000000 3.130435 0.000000 
					}
				}
			}
			JOINT lCollar
			{
				OFFSET 3.470700 6.669187 -0.816635 
				CHANNELS 3 Yrotation Zrotation Xrotation
				JOINT lShldr
				{
					OFFSET 3.198488 0.000000 0.000000 
					CHANNELS 3 Zrotation Yrotation Xrotation
					JOINT lForeArm
					{
						OFFSET 10.139888 0.000000 0.000000 
						CHANNELS 3 Yrotation Zrotation Xrotation
						JOINT lHand
						{
							OFFSET 8.370511 0.000000 0.000000 
							CHANNELS 3 Zrotation Yrotation Xrotation
							End Site
							{
								OFFSET 4.083176 0.000000 0.000000 
							}
						}
					}
				}
			}
			JOINT rCollar
			{
				OFFSET -3.470700 6.669187 -0.816635 
				CHANNELS 3 Yrotation Zrotation Xrotation
				JOINT rShldr
				{
					OFFSET -3.198488 0.000000 0.000000 
					CHANNELS 3 Zrotation Yrotation Xrotation
					JOINT rForeArm
					{
						OFFSET -10.139888 0.000000 0.000000 
						CHANNELS 3 Yrotation Zrotation Xrotation
						JOINT rHand
						{
							OFFSET -8.370511 0.000000 0.000000 
							CHANNELS 3 Zrotation Yrotation Xrotation
							End Site
							{
								OFFSET -4.083176 0.000000 0.000000 
							}
						}
					}
				}
			}
		}
	}
	JOINT lThigh
	{
		OFFSET 5.308129 -1.633274 1.361059 
		CHANNELS 3 Xrotation Zrotation Yrotation
		JOINT lShin
		{
			OFFSET -2.041588 -20.007561 0.000000 
			CHANNELS 3 Xrotation Zrotation Yrotation
			JOINT lFoot
			{
				OFFSET 0.000000 -19.190928 -1.224953 
				CHANNELS 3 Xrotation Yrotation Zrotation
				End Site
				{
					OFFSET 0.000000 -2.449906 4.627600 
				}
			}
		}
	}
	JOINT rThigh
	{
		OFFSET -5.308129 -1.633274 1.361059 
		CHANNELS 3 Xrotation Zrotation Yrotation
		JOINT rShin
		{
			OFFSET 2.041588 -20.007561 0.000000 
			CHANNELS 3 Xrotation Zrotation Yrotation
			JOINT rFoot
			{
				OFFSET 0.000000 -19.190928 -1.224953 
				CHANNELS 3 Xrotation Yrotation Zrotation
				End Site
				{
					OFFSET 0.000000 -2.449906 4.627600 
				}
			}
		}
	}
}
MOTION
Frames: 13
Frame Time: 0.033333
3.252125 44.657211 3.252125 -7.568391 0.164568 -0.031631 45.566509 7.836506 -32.308899 9.805609 -0.709213 -10.635257 -8.544922 -0.001505 -0.009645 4.105196 22.839062 29.813202 2.000000 -2.000000 0.000000 54.874844 -38.309883 -45.072971 -45.988731 -0.606086 8.541965 -3.686085 -28.455612 -145.534393 -2.000000 2.000000 0.000000 30.820026 124.455215 8.591063 38.294590 0.640198 8.479468 16.521105 -24.323792 -100.780464 -44.704990 8.222301 -1.237764 60.975044 0.473543 -3.860043 -9.135047 -1.838324 -5.887486 -8.383517 -9.233289 2.964350 59.143360 -0.389004 3.767203 -43.514420 -3.360059 7.280827 
3.171990 43.735600 3.171990 -9.726603 0.163628 -0.037813 45.555565 8.152021 -33.379002 9.845762 -0.969454 -10.640312 -8.544922 -0.001505 -0.009645 4.885962 24.497168 31.017214 2.000000 -2.000000 0.000000 41.236702 -34.593884 -32.872360 -60.715702 -0.539571 8.680883 -2.109528 -20.794535 -146.087143 -2.000000 2.000000 0.000000 19.175674 125.216560 -1.611967 38.740231 0.638630 8.485372 16.694048 -24.660904 -100.508583 -46.830860 8.367855 -1.549329 64.764847 0.735608 -3.978493 -8.702294 -2.059413 -6.039590 -11.157606 -9.117876 3.274875 65.711014 -0.819359 3.957845 -45.230412 -3.225078 7.358121 
3.131922 42.773987 3.131922 -11.933638 0.152871 -0.042075 45.544926 8.278388 -33.817997 9.850290 -1.076019 -10.643955 -8.544922 -0.001505 -0.009645 5.388071 25.845020 31.606577 2.000000 -2.000000 0.000000 27.883657 -31.331509 -19.247667 -72.984512 -0.513341 8.803221 -0.176840 -14.345132 -145.348358 -2.000000 2.000000 0.000000 5.446202 126.395668 -14.464360 40.954178 0.624262 8.496838 17.602392 -26.243750 -99.198700 -48.958241 8.416863 -1.819302 68.321587 0.969903 -4.058708 -8.008798 -2.289952 -6.107923 -13.855018 -9.080722 3.671326 71.966461 -1.249245 4.077308 -46.636692 -3.100557 7.570335 
3.146950 41.817375 3.146950 -14.140675 0.151514 -0.047938 45.540089 8.250390 -33.750854 9.849324 -1.056686 -10.641863 -8.544922 -0.001505 -0.009645 5.588616 26.922571 31.685698 2.000000 -2.000000 0.000000 16.324415 -27.565338 -5.216456 -82.301003 -0.513466 8.903661 3.044032 -9.283424 -143.760925 -2.000000 2.000000 0.000000 -4.909330 128.260208 -23.627001 42.288288 0.617343 8.507683 18.126461 -27.206596 -98.411705 -51.011620 8.407621 -2.066401 71.595772 1.194082 -4.110383 -7.032964 -2.515523 -6.105091 -16.509981 -9.090118 4.069278 77.861145 -1.660024 4.156977 -47.755867 -2.960281 7.843087 
3.182003 40.870762 3.182003 -16.347719 0.159302 -0.056493 45.544163 8.123645 -33.319618 9.844799 -0.950121 -10.638220 -8.544922 -0.001505 -0.009645 5.566208 27.761297 31.360363 2.000000 -2.000000 0.000000 16.093779 -27.429834 -3.531351 -83.169930 -0.513510 8.912089 4.356403 -8.644894 -144.434448 -2.000000 2.000000 0.000000 -6.190728 128.119110 -24.620787 42.288288 0.617343 8.507683 18.126461 -27.206596 -98.411705 -52.974361 8.348631 -2.234046 74.518150 1.408265 -4.161067 -5.860694 -2.716690 -6.025714 -19.048513 -9.119462 4.585481 83.337494 -2.050578 4.188367 -48.555683 -2.830931 8.224192 
3.237097 39.969154 3.237098 -18.466867 0.157465 -0.062352 45.562057 7.928275 -32.648899 9.818859 -0.786702 -10.635820 -8.544922 -0.001505 -0.009645 5.349452 28.371195 30.771160 2.000000 -2.000000 0.000000 26.066507 -31.986197 -14.394384 -75.024506 -0.509646 8.824688 1.723198 -13.147633 -146.914261 -2.000000 2.000000 0.000000 0.459480 125.701790 -19.340935 42.288288 0.617343 8.507683 18.126461 -27.206596 -98.411705 -54.796074 8.250716 -2.334136 77.120094 1.583555 -4.187589 -4.541303 -2.908007 -5.910732 -21.512751 -9.159759 5.112149 88.386131 -2.412010 4.183885 -49.107395 -2.687722 8.648166 
3.292191 39.097675 3.292191 -20.478586 0.146372 -0.074196 45.561474 7.718132 -31.896048 9.801147 -0.602641 -10.631558 -8.544922 -0.001505 -0.009645 5.035325 28.802536 30.062042 2.000000 -2.000000 0.000000 37.633022 -36.674564 -26.952085 -63.549774 -0.529152 8.709951 -1.150232 -19.504284 -147.514648 -2.000000 2.000000 0.000000 9.426262 123.379539 -11.940486 42.288288 0.617343 8.507683 18.126461 -27.206596 -98.411705 -56.438171 8.143672 -2.425556 79.302666 1.740370 -4.205156 -3.071360 -3.076751 -5.786402 -23.903898 -9.188672 5.686826 92.957970 -2.734295 4.168296 -49.381321 -2.519750 9.110484 
3.357299 38.311333 3.357299 -22.363356 0.144497 -0.069215 45.572182 7.510053 -31.195396 9.773772 -0.429128 -10.628975 -8.544922 -0.001505 -0.009645 4.690686 29.076063 29.372986 2.000000 -2.000000 0.000000 48.741131 -40.546902 -38.819881 -51.351807 -0.573528 8.587667 -3.847935 -26.002846 -146.012024 -2.000000 2.000000 0.000000 19.552181 121.844383 -3.339909 42.288288 0.617343 8.507683 18.126461 -27.206596 -98.411705 -57.907799 8.046173 -2.498663 81.144119 1.875727 -4.219401 -1.598141 -3.204164 -5.621646 -26.089821 -9.198324 6.296118 97.014893 -3.026888 4.110264 -49.437336 -2.363784 9.585315 
3.397366 37.645256 3.397366 -24.052813 0.142681 -0.073450 45.576687 7.353391 -30.662966 9.748945 -0.304264 -10.632402 -8.544922 -0.001505 -0.009645 4.416817 29.214252 28.850088 2.000000 -2.000000 0.000000 60.324627 -43.648617 -50.673134 -38.131981 -0.651693 8.471668 -6.640127 -32.686977 -142.940125 -2.000000 2.000000 0.000000 28.924021 121.330795 4.741986 42.288288 0.617343 8.507683 18.126461 -27.206596 -98.411705 -59.146591 7.958105 -2.555750 82.654709 1.983560 -4.221762 -0.186340 -3.359066 -5.510789 -28.081804 -9.149614 6.824110 100.526779 -3.271274 4.050468 -49.348026 -2.181209 10.007914 
3.412393 37.019184 3.412393 -25.498121 0.132213 -0.082590 45.573421 7.300663 -30.445135 9.747052 -0.246340 -10.624949 -8.544922 -0.001505 -0.009645 4.303389 29.249735 28.634130 2.000000 -2.000000 0.000000 73.204781 -45.803719 -62.297131 -23.036083 -0.766513 8.374681 -8.976103 -40.011955 -139.343109 -2.000000 2.000000 0.000000 35.440048 121.540649 10.333416 42.288288 0.617343 8.507683 18.126461 -27.206596 -98.411705 -60.155197 7.908691 -2.639863 83.823547 2.079375 -4.228095 1.096752 -3.484635 -5.423092 -29.808428 -9.090652 7.268506 103.464149 -3.466487 3.990483 -49.164772 -2.000665 10.350410 
3.412393 36.683514 3.412393 -26.523514 0.131064 -0.084946 45.612728 6.950447 -30.106737 9.747052 -0.246340 -10.624949 -8.544922 -0.001505 -0.009645 5.117415 28.336332 28.498003 2.000000 -2.000000 0.000000 73.761169 -46.120232 -62.886276 -23.036083 -0.766513 8.374681 -9.089616 -40.001190 -139.205917 -2.000000 2.000000 0.000000 37.721523 122.519730 12.300444 40.766560 0.629961 8.492729 18.126461 -27.206596 -98.411705 -60.731049 7.958654 -2.767581 84.925362 2.148828 -4.223947 1.507062 -3.628635 -5.466102 -30.404892 -9.042043 7.396821 105.250076 -3.593116 3.949667 -49.371819 -1.871850 10.434735 
3.412393 36.548374 3.412393 -26.943436 0.130581 -0.085905 45.701004 6.250706 -29.417826 9.747052 -0.246340 -10.624949 -8.544922 -0.001505 -0.009645 6.717347 26.209333 28.162407 2.000000 -2.000000 0.000000 74.906685 -46.683006 -63.803585 -23.036083 -0.766513 8.374681 -9.049832 -39.995937 -139.250107 -2.000000 2.000000 0.000000 37.020664 123.931648 11.826600 37.711658 0.646105 8.473931 18.126461 -27.206596 -98.411705 -60.808975 8.085784 -2.946875 85.939453 2.207100 -4.225166 0.994209 -3.753387 -5.610656 -29.698923 -9.080861 7.266245 105.670616 -3.603442 3.933873 -50.063076 -1.810326 10.326634 
3.412393 36.628510 3.412393 -26.875074 0.130660 -0.085749 45.753677 5.713927 -28.900360 9.747052 -0.246340 -10.624949 -8.544922 -0.001505 -0.009645 7.809928 23.699543 27.785690 2.000000 -2.000000 0.000000 75.773705 -47.098675 -64.494743 -23.036083 -0.766513 8.374681 -9.015821 -40.002949 -139.292572 -2.000000 2.000000 0.000000 35.283363 124.860954 10.471663 35.422138 0.662233 8.454597 18.126461 -27.206596 -98.411705 -60.595642 8.182480 -3.015633 86.387535 2.245378 -4.224979 0.214267 -3.796072 -5.708479 -28.696753 -9.139874 7.010329 105.211578 -3.583532 3.942118 -50.663174 -1.800281 10.137413 
